<svg xmlns="http://www.w3.org/2000/svg" xmlns:xlink="http://www.w3.org/1999/xlink" width="500" zoomAndPan="magnify" viewBox="0 0 375 374.999991" height="500" preserveAspectRatio="xMidYMid meet" version="1.0"><defs><g><g id="id1"/></g></defs><path fill="rgb(8.628845%, 19.60907%, 30.979919%)" d="M 178.699219 46.078125 C 108.074219 46.078125 50.824219 105.175781 50.824219 178.078125 C 50.824219 250.980469 108.074219 310.078125 178.699219 310.078125 C 249.320312 310.078125 306.574219 250.980469 306.574219 178.078125 C 306.574219 105.175781 249.320312 46.078125 178.699219 46.078125 " fill-opacity="1" fill-rule="nonzero"/><g fill="rgb(86.268616%, 94.898987%, 100%)" fill-opacity="1"><g transform="translate(103.285794, 215.318765)"><g><path d="M 50.640625 -8.328125 L 3.359375 -29.3125 L 3.359375 -37.359375 L 50.640625 -61.015625 L 50.640625 -47.125 L 21.640625 -33.890625 L 50.640625 -22.109375 Z M 50.640625 -8.328125 "/></g></g></g><g fill="rgb(86.268616%, 94.898987%, 100%)" fill-opacity="1"><g transform="translate(157.464777, 215.318765)"><g><path d="M 42.125 -69.328125 L 16.640625 0.9375 L 0.46875 0.9375 L 25.953125 -69.328125 Z M 42.125 -69.328125 "/></g></g></g><g fill="rgb(86.268616%, 94.898987%, 100%)" fill-opacity="1"><g transform="translate(199.770196, 215.318765)"><g><path d="M 3.359375 -22.109375 L 32.359375 -33.890625 L 3.359375 -47.125 L 3.359375 -61.015625 L 50.640625 -37.359375 L 50.640625 -29.3125 L 3.359375 -8.328125 Z M 3.359375 -22.109375 "/></g></g></g></svg>